<svg id="Layer_1" data-name="Layer 1" xmlns="http://www.w3.org/2000/svg" viewBox="0 0 404 253"><defs><style>.cls-1{fill:#2b104a;stroke-width:2px;}.cls-1,.cls-2{stroke:#fff;}.cls-1,.cls-2,.cls-3{stroke-miterlimit:10;}.cls-2,.cls-4{fill:#fff;}.cls-3,.cls-6{fill:#ccc;}.cls-3{stroke:#ccc;}.cls-4{font-size:43.58px;font-family:Roboto-Regular, Roboto;}.cls-5{fill:#f3f3f3;}.cls-7{letter-spacing:-0.01em;}</style></defs><polygon class="cls-1" points="36 1 371.98 1 385 7 395 14 403 27 403 221.64 397 232 385 245 371 252 36 252 21 246 8 231 1 219 1 32.03 8 18 21 7 36 1"/><path class="cls-2" d="M235.64,438H223L210,437.5h-8.83l13.46-7.85,2.9-6.78,1-8.93,1-13,2-8-1-4.74-7.25,5.16-8.07,4-10.08,3.37,4.47-11.13,7-9,8.06-7.07,8.06-5,4.92-3.94,4.85-5.82.05-14.78,4.06-8.37,7.23-5.17h10.27l15,3,7.13,1.19-5,3.77-10.53,1.67V345l-.17,7.83,3.92,5.87,6.08,13.22,1,8v6.11l-2,9.06-4,11.06-5,10.05-5,7.07-5.16,6.14Zm-30.79-1.48H210l13.06.48h12.3l14.31-8.37,5-5.93,5-7,5-9.93,4-10.95,2-8.88V380l-1-7.86-6-12.93-4.05-6.06.17-8.15v-5.72l11.13-1.75,3-2.23-4.85-.81-14.91-3h-9.85l-6.77,4.83-3.89,8v14.81l-5.19,6.21-5,4-8,5-7.94,7-6.89,8.87-3.58,8.93,8-2.65,7.94-4L225,383.83l.62.79-4.09,3.57,1,4.82-2,8.11-1,12.92-1,9.16-3.07,7.15Z" transform="translate(-96 -294)"/><path class="cls-2" d="M264.15,438H232.33l17-5.48h11.09Zm-25.48-1h23.59l-2.35-3.48H249.43Z" transform="translate(-96 -294)"/><polygon class="cls-2" points="124.14 143.96 123.87 143 131.84 140.79 139.1 134.07 142.56 127.76 148.55 115.78 152.88 103.9 156.85 90.17 156.85 80.39 152.91 65.44 145.68 59.38 142.64 57.34 140.18 54.75 140.18 51.37 142.66 47.61 147.04 45.42 150.42 47.68 151.45 50.76 153.55 53.48 157.17 52.57 160.76 50.56 163.67 48.72 163.67 42.24 166.82 38.51 167.59 39.16 164.67 42.61 164.67 49.27 161.27 51.42 157.47 53.52 153.16 54.61 150.53 51.16 149.58 48.32 146.96 46.58 143.34 48.39 141.18 51.67 141.18 54.35 143.32 56.62 146.28 58.58 153.79 64.88 157.85 80.32 157.83 90.38 153.83 104.21 149.47 116.17 143.45 128.22 139.84 134.75 132.34 141.69 124.14 143.96"/><circle class="cls-2" cx="157.5" cy="42.5" r="1.5"/><path class="cls-3" d="M165.45,507.41h-12.6l-13.06-.48H131l13.46-7.85,2.9-6.78,1-8.92,1-13,2-8-1-4.74-7.25,5.16-8.07,4L125,470.25l4.47-11.12,7-9,8.06-7.07,8.06-5.05,4.92-3.94,4.85-5.82.05-14.78,4.06-8.37,7.23-5.17h10.27l15,3,7.13,1.19-5,3.78-10.53,1.66v4.88l-.17,7.84,3.92,5.87,6.08,13.21,1,8v6.12l-2,9.05-4,11.06-5,10.06-5,7.06-5.16,6.14Zm-30.79-1.48h5.15l13.06.48h12.3l14.31-8.36,5-5.94,5-7,5-9.93,4-10.95,2-8.88v-5.95l-1-7.86-6-12.93-4.05-6.06.17-8.14v-5.72L200.61,407l3-2.23-4.85-.8-14.91-3H174l-6.77,4.84-3.89,8v14.8l-5.19,6.21-5,4-8,5-7.94,6.95-6.89,8.87-3.58,8.94,8-2.66,7.94-4,12.24-8.73.62.79-4.09,3.57,1,4.83-2,8.1-1,12.92-1,9.16-3.07,7.15Z" transform="translate(-96 -294)"/><path class="cls-3" d="M194,507.41H162.14l17-5.48h11.09Zm-25.48-1h23.59l-2.35-3.48H179.24Z" transform="translate(-96 -294)"/><polygon class="cls-3" points="53.95 213.39 53.68 212.43 61.65 210.22 68.91 203.5 72.37 197.19 78.36 185.21 82.69 173.33 86.66 159.6 86.66 149.82 82.72 134.88 75.49 128.82 72.45 126.78 69.99 124.19 69.99 120.8 72.47 117.05 76.85 114.86 80.23 117.11 81.26 120.19 83.36 122.92 86.98 122 90.57 120 93.48 118.15 93.48 111.68 96.63 107.94 97.4 108.59 94.48 112.04 94.48 118.7 91.08 120.86 87.28 122.95 82.97 124.05 80.34 120.59 79.39 117.75 76.77 116.01 73.15 117.82 70.99 121.1 70.99 123.79 73.13 126.05 76.09 128.02 83.61 134.31 87.66 149.75 87.64 159.81 83.64 173.64 79.28 185.6 73.26 197.66 69.65 204.18 62.15 211.12 53.95 213.39"/><circle class="cls-3" cx="87.31" cy="111.93" r="1.5"/><text class="cls-4" transform="translate(212.47 68.69)">Purple<tspan class="cls-5"><tspan x="0" y="69.09">Penguin</tspan></tspan><tspan class="cls-6"><tspan x="0" y="138.18">P</tspan><tspan class="cls-7" x="27.49" y="138.18">r</tspan><tspan x="41.81" y="138.18">oject</tspan></tspan></text></svg>