<svg id="Layer_1" data-name="Layer 1" xmlns="http://www.w3.org/2000/svg" viewBox="0 0 404 485.92"><defs><style>.cls-1,.cls-2{fill:none;}.cls-1,.cls-4{stroke:#000;}.cls-1,.cls-3,.cls-4{stroke-miterlimit:10;}.cls-1{stroke-width:2px;}.cls-3,.cls-5{fill:#4d4d4d;}.cls-3{stroke:#4d4d4d;}.cls-5{font-size:43.58px;font-family:Roboto-Regular, Roboto;}.cls-6{fill:#333;}.cls-7{fill:#000;}.cls-8{letter-spacing:-0.01em;}</style></defs><polygon class="cls-1" points="36 233.92 371.98 233.92 385 239.92 395 246.92 403 259.92 403 454.56 397 464.92 385 477.92 371 484.92 36 484.92 21 478.92 8 463.92 1 451.92 1 264.95 8 250.92 21 239.92 36 233.92"/><path class="cls-2" d="M345.67,214.5" transform="translate(-170.5 -166.58)"/><path class="cls-3" d="M310.14,543.48h-12.6L284.48,543h-8.83l13.46-7.85,2.9-6.78,1-8.93,1-13,2-8-.95-4.74-7.25,5.16-8.07,4-10.08,3.37,4.47-11.13,7-9,8.06-7.07,8.06-5,4.92-3.94,4.85-5.82.05-14.78,4.06-8.37,7.23-5.17h10.27l15,3,7.13,1.19-5,3.77-10.53,1.67v4.88l-.17,7.83,3.92,5.87L345,477.44l1,8v6.11l-2,9.06-4,11.06-5,10.05-5,7.07-5.16,6.14ZM279.35,542h5.15l13.06.48h12.3l14.31-8.37,4.95-5.93,5-7,5-9.93,4-10.95,2-8.88V485.5l-1-7.86-6-12.93L334,458.65l.17-8.15v-5.72L345.3,443l3-2.23-4.85-.81-14.91-3h-9.85l-6.77,4.83-3.89,8v14.81l-5.19,6.21-5,4-8,5-7.94,7-6.89,8.87-3.58,8.93,8-2.65,7.94-4,12.24-8.72.62.79-4.09,3.57,1,4.82-2,8.11-1,12.92-1,9.16-3.07,7.15Z" transform="translate(-170.5 -166.58)"/><path class="cls-3" d="M338.65,543.48H306.83l17-5.48h11.09Zm-25.48-1h23.59L334.41,539H323.93Z" transform="translate(-170.5 -166.58)"/><polygon class="cls-3" points="124.14 376.88 123.87 375.92 131.84 373.71 139.1 366.99 142.56 360.68 148.55 348.69 152.88 336.81 156.85 323.09 156.85 313.3 152.91 298.36 145.68 292.3 142.64 290.26 140.18 287.67 140.18 284.29 142.66 280.53 147.04 278.34 150.42 280.6 151.45 283.68 153.55 286.4 157.17 285.49 160.76 283.48 163.67 281.64 163.67 275.16 166.82 271.43 167.59 272.07 164.67 275.53 164.67 282.19 161.27 284.34 157.47 286.44 153.16 287.53 150.53 284.08 149.58 281.24 146.96 279.5 143.34 281.31 141.18 284.59 141.18 287.27 143.32 289.53 146.28 291.5 153.79 297.8 157.85 313.24 157.83 323.3 153.83 337.13 149.47 349.09 143.45 361.14 139.84 367.67 132.34 374.61 124.14 376.88"/><circle class="cls-3" cx="157.5" cy="275.42" r="1.5"/><path class="cls-4" d="M240,612.91h-12.6l-13.06-.48h-8.83l13.46-7.85,2.9-6.78,1-8.92,1-13,2-8-1-4.74-7.25,5.16-8.07,4-10.08,3.37,4.47-11.12,7-9,8.06-7.07,8.06-5,4.92-3.94,4.85-5.82.05-14.78,4.06-8.37,7.23-5.17h10.27l15,3,7.13,1.19-5,3.78L265,515.07V520l-.17,7.84,3.92,5.87,6.08,13.21,1,8V561l-2,9-4,11.06-5,10.06-5,7.06-5.16,6.14Zm-30.79-1.48h5.15l13.06.48h12.3L254,603.55l5-5.94,5-7,5-9.93,4-11,2-8.88v-6l-1-7.86-6-12.93-4.05-6.06.17-8.14v-5.72l11.13-1.76,3-2.23-4.85-.8-14.91-3h-9.85l-6.77,4.84-3.89,8v14.8l-5.19,6.21-5,4-8,5-7.94,6.95-6.89,8.87-3.58,8.94,8-2.66,7.94-4,12.24-8.73.62.79-4.09,3.57,1,4.83-2,8.1-1,12.92-1,9.16-3.07,7.15Z" transform="translate(-170.5 -166.58)"/><path class="cls-4" d="M268.46,612.91H236.64l17-5.48h11.09Zm-25.48-1h23.59l-2.35-3.48H253.74Z" transform="translate(-170.5 -166.58)"/><polygon class="cls-4" points="53.95 446.31 53.68 445.35 61.65 443.14 68.91 436.42 72.37 430.11 78.36 418.13 82.69 406.25 86.66 392.52 86.66 382.74 82.72 367.8 75.49 361.73 72.45 359.69 69.99 357.1 69.99 353.72 72.47 349.96 76.85 347.77 80.23 350.03 81.26 353.11 83.36 355.83 86.98 354.92 90.57 352.91 93.48 351.07 93.48 344.59 96.63 340.86 97.4 341.5 94.48 344.96 94.48 351.62 91.08 353.77 87.28 355.87 82.97 356.96 80.34 353.51 79.39 350.67 76.77 348.93 73.15 350.74 70.99 354.02 70.99 356.7 73.13 358.97 76.09 360.93 83.61 367.23 87.66 382.67 87.64 392.73 83.64 406.56 79.28 418.52 73.26 430.57 69.65 437.1 62.15 444.04 53.95 446.31"/><circle class="cls-4" cx="87.31" cy="344.85" r="1.5"/><text class="cls-5" transform="translate(212.47 301.61)">Purple<tspan class="cls-6"><tspan x="0" y="69.09">Penguin</tspan></tspan><tspan class="cls-7"><tspan x="0" y="138.18">P</tspan><tspan class="cls-8" x="27.49" y="138.18">r</tspan><tspan x="41.81" y="138.18">oject</tspan></tspan></text><text x="-170.5" y="-166.58"/></svg>