<svg id="Layer_1" data-name="Layer 1" xmlns="http://www.w3.org/2000/svg" viewBox="0 0 404 253"><defs><style>.cls-1{fill:#2b104a;stroke-width:2px;}.cls-1,.cls-2{stroke:#fff;}.cls-1,.cls-2,.cls-3{stroke-miterlimit:10;}.cls-2,.cls-4{fill:#fff;}.cls-3,.cls-6{fill:#ccc;}.cls-3{stroke:#ccc;}.cls-5{fill:#f3f3f3;}</style></defs><polygon class="cls-1" points="36 1 371.98 1 385 7 395 14 403 27 403 221.64 397 232 385 245 371 252 36 252 21 246 8 231 1 219 1 32.03 8 18 21 7 36 1"/><path class="cls-2" d="M219.64,421H207L194,420.5h-8.83l13.46-7.85,2.91-6.78,1-8.93,1-13,2-8-.95-4.74-7.25,5.16-8.07,4-10.09,3.37,4.47-11.12,7-9,8.07-7.07,8.06-5.05,4.91-3.94,4.85-5.82.05-14.78,4.06-8.37,7.23-5.17h10.27l15,3,7.14,1.19-5,3.78-10.53,1.66V328l-.17,7.84,3.91,5.87L254.5,355l1,8v6.12l-2,9.05-4,11.06-5,10.05-5,7.07-5.15,6.14Zm-30.79-1.48H194l13.06.48h12.31l14.31-8.37,4.94-5.93,5-7,5-9.93,4-10.95,2-8.88V363l-1-7.86-6-12.93-4.05-6.06.18-8.14v-5.72l11.13-1.76,3-2.22-4.85-.81-14.91-3h-9.85l-6.77,4.83-3.89,8v14.81l-5.19,6.21-5,4-8,5-7.94,6.95-6.89,8.87-3.57,8.93,8-2.66,7.93-4L209,366.83l.62.78-4.09,3.57,1,4.83-2,8.11-1,12.92-1,9.16-3.06,7.15Z" transform="translate(-80 -277)"/><path class="cls-2" d="M248.15,421H216.33l17-5.48h11.09Zm-25.48-1h23.59l-2.35-3.48H233.43Z" transform="translate(-80 -277)"/><polygon class="cls-2" points="124.14 143.96 123.87 143 131.84 140.79 139.1 134.07 142.56 127.76 148.55 115.78 152.88 103.9 156.85 90.17 156.85 80.39 152.91 65.44 145.68 59.38 142.64 57.34 140.18 54.75 140.18 51.37 142.66 47.61 147.04 45.42 150.42 47.68 151.45 50.76 153.55 53.48 157.17 52.57 160.76 50.56 163.67 48.72 163.67 42.24 166.82 38.51 167.59 39.15 164.67 42.61 164.67 49.27 161.27 51.42 157.48 53.52 153.16 54.61 150.53 51.16 149.58 48.32 146.96 46.58 143.34 48.39 141.18 51.67 141.18 54.35 143.32 56.62 146.28 58.58 153.8 64.88 157.85 80.32 157.83 90.38 153.83 104.21 149.47 116.17 143.45 128.22 139.84 134.75 132.34 141.69 124.14 143.96"/><circle class="cls-2" cx="157.5" cy="42.5" r="1.5"/><path class="cls-3" d="M149.45,490.41h-12.6l-13.06-.48H115l13.46-7.85,2.91-6.78,1-8.93,1-13,2-8-.95-4.74-7.25,5.16-8.07,4L109,453.25l4.47-11.12,7-9,8.07-7.07,8.06-5.05,4.91-3.94,4.85-5.82.05-14.78,4.06-8.37,7.23-5.17h10.27l15,3,7.14,1.19-5,3.78-10.53,1.66v4.88l-.17,7.84,3.91,5.87,6.08,13.22,1,8v6.12l-2,9.05-4,11.06-5,10.05-5,7.07-5.15,6.14Zm-30.79-1.48h5.15l13.06.48h12.31L163.49,481l4.94-5.93,5-7,5-9.93,4-10.95,2-8.88v-5.95l-1-7.86-6-12.93-4.05-6.06.18-8.14v-5.72L184.62,390l3-2.22-4.85-.81-14.91-3H158l-6.77,4.83-3.89,8v14.81l-5.19,6.21-5,4-8,5-7.94,6.95-6.89,8.87-3.57,8.93,8-2.66,7.93-4,12.24-8.72.62.78-4.09,3.57,1,4.83-2,8.11-1,12.92-1,9.16-3.06,7.15Z" transform="translate(-80 -277)"/><path class="cls-3" d="M178,490.41H146.14l17-5.48h11.09Zm-25.48-1h23.59l-2.35-3.48H163.24Z" transform="translate(-80 -277)"/><polygon class="cls-3" points="53.95 213.39 53.68 212.43 61.65 210.22 68.91 203.51 72.37 197.19 78.36 185.21 82.69 173.33 86.66 159.6 86.66 149.82 82.72 134.88 75.49 128.82 72.45 126.78 69.99 124.18 69.99 120.8 72.47 117.05 76.85 114.86 80.23 117.11 81.26 120.19 83.36 122.92 86.98 122 90.57 120 93.48 118.15 93.48 111.68 96.63 107.94 97.4 108.59 94.48 112.04 94.48 118.7 91.08 120.86 87.29 122.95 82.97 124.05 80.34 120.59 79.39 117.75 76.77 116.01 73.15 117.82 70.99 121.1 70.99 123.79 73.13 126.05 76.09 128.02 83.61 134.31 87.66 149.75 87.64 159.81 83.64 173.64 79.28 185.6 73.26 197.66 69.65 204.18 62.15 211.12 53.95 213.39"/><circle class="cls-3" cx="87.31" cy="111.93" r="1.5"/><path class="cls-4" d="M300.15,333.56v12.13h-4.09v-31h11.43q5.08,0,8,2.6a8.8,8.8,0,0,1,2.88,6.87,8.69,8.69,0,0,1-2.82,6.95c-1.88,1.62-4.57,2.44-8.08,2.44h-7.29Zm0-3.34h7.34a7.34,7.34,0,0,0,5-1.55,5.66,5.66,0,0,0,1.74-4.47,5.82,5.82,0,0,0-1.74-4.43,7,7,0,0,0-4.79-1.73h-7.58v12.18Z" transform="translate(-80 -277)"/><path class="cls-4" d="M337.15,343.41q-2.29,2.7-6.75,2.7a7.16,7.16,0,0,1-5.61-2.14c-1.29-1.43-1.93-3.54-2-6.33v-15h3.94v14.87q0,5.24,4.26,5.23,4.51,0,6-3.36V322.65H341v23h-3.75Z" transform="translate(-80 -277)"/><path class="cls-4" d="M358.09,326.2a11.75,11.75,0,0,0-1.94-.15,5.2,5.2,0,0,0-5.26,3.3v16.34H347v-23h3.83l.06,2.66a6.12,6.12,0,0,1,5.49-3.08,3.94,3.94,0,0,1,1.74.3v3.65Z" transform="translate(-80 -277)"/><path class="cls-4" d="M381.15,334.43a13.75,13.75,0,0,1-2.41,8.47,7.7,7.7,0,0,1-6.51,3.21,8.48,8.48,0,0,1-6.6-2.66v11.09h-3.94V322.67h3.6l.19,2.55a8.09,8.09,0,0,1,6.68-3,7.83,7.83,0,0,1,6.56,3.13q2.41,3.13,2.42,8.7v.36Zm-3.93-.44a10.13,10.13,0,0,0-1.66-6.15,5.36,5.36,0,0,0-4.55-2.26,5.79,5.79,0,0,0-5.36,3.17v11a5.8,5.8,0,0,0,5.41,3.15,5.32,5.32,0,0,0,4.5-2.24C376.66,339.16,377.22,336.94,377.22,334Z" transform="translate(-80 -277)"/><path class="cls-4" d="M390.43,345.69h-3.94V313h3.94Z" transform="translate(-80 -277)"/><path class="cls-4" d="M406.28,346.12a10.07,10.07,0,0,1-7.62-3.07,11.4,11.4,0,0,1-2.94-8.22v-.72A13.89,13.89,0,0,1,397,328a10.17,10.17,0,0,1,3.66-4.21,9.25,9.25,0,0,1,5.1-1.52,8.64,8.64,0,0,1,7,3q2.49,3,2.49,8.47v1.64h-15.6a8.2,8.2,0,0,0,2,5.5,6.24,6.24,0,0,0,4.84,2.1,6.81,6.81,0,0,0,3.53-.85,8.88,8.88,0,0,0,2.53-2.26l2.4,1.87A9.68,9.68,0,0,1,406.28,346.12Zm-.49-20.64a5.27,5.27,0,0,0-4,1.73,8.4,8.4,0,0,0-2,4.86h11.53v-.3a7.45,7.45,0,0,0-1.62-4.65A4.93,4.93,0,0,0,405.79,325.48Z" transform="translate(-80 -277)"/><path class="cls-5" d="M300.15,402.65v12.13h-4.09v-31h11.43q5.08,0,8,2.6a8.8,8.8,0,0,1,2.88,6.87,8.69,8.69,0,0,1-2.82,7c-1.88,1.62-4.57,2.44-8.08,2.44h-7.29Zm0-3.34h7.34a7.34,7.34,0,0,0,5-1.55,5.66,5.66,0,0,0,1.74-4.47,5.82,5.82,0,0,0-1.74-4.43,7,7,0,0,0-4.79-1.73h-7.58v12.18Z" transform="translate(-80 -277)"/><path class="cls-5" d="M332.49,415.21a10.07,10.07,0,0,1-7.62-3.07,11.4,11.4,0,0,1-2.94-8.22v-.72a13.89,13.89,0,0,1,1.31-6.12,10.17,10.17,0,0,1,3.66-4.21,9.25,9.25,0,0,1,5.1-1.52,8.64,8.64,0,0,1,7,3q2.49,3,2.49,8.47v1.64h-15.6a8.2,8.2,0,0,0,2,5.5,6.24,6.24,0,0,0,4.84,2.1,6.81,6.81,0,0,0,3.53-.85,8.88,8.88,0,0,0,2.53-2.26l2.4,1.87A9.65,9.65,0,0,1,332.49,415.21ZM332,394.57a5.27,5.27,0,0,0-4,1.73,8.44,8.44,0,0,0-2,4.86h11.53v-.3a7.45,7.45,0,0,0-1.62-4.65A4.93,4.93,0,0,0,332,394.57Z" transform="translate(-80 -277)"/><path class="cls-5" d="M349.75,391.76l.13,2.89a8.4,8.4,0,0,1,6.89-3.32q7.31,0,7.36,8.23v15.21h-3.94V399.54a5.29,5.29,0,0,0-1.14-3.68,4.58,4.58,0,0,0-3.48-1.19,5.66,5.66,0,0,0-3.36,1,6.85,6.85,0,0,0-2.25,2.68v16.4H346v-23h3.73Z" transform="translate(-80 -277)"/><path class="cls-5" d="M369.13,403.08q0-5.38,2.49-8.56a8.59,8.59,0,0,1,13.18-.2l.19-2.55h3.6v22.47a9.33,9.33,0,0,1-2.65,7,9.77,9.77,0,0,1-7.12,2.57,11.82,11.82,0,0,1-4.87-1.06,8.38,8.38,0,0,1-3.64-2.92l2-2.36a7.71,7.71,0,0,0,6.19,3.13A6,6,0,0,0,383,419a6.19,6.19,0,0,0,1.61-4.55v-2a8.07,8.07,0,0,1-6.45,2.72,7.85,7.85,0,0,1-6.54-3.26C370,409.78,369.13,406.82,369.13,403.08Zm4,.45a10.27,10.27,0,0,0,1.6,6.12,5.18,5.18,0,0,0,4.47,2.22,5.77,5.77,0,0,0,5.47-3.38V398a5.83,5.83,0,0,0-5.43-3.3,5.24,5.24,0,0,0-4.49,2.23C373.63,398.4,373.09,400.6,373.09,403.53Z" transform="translate(-80 -277)"/><path class="cls-5" d="M408.73,412.5q-2.3,2.7-6.74,2.7a7.15,7.15,0,0,1-5.61-2.14q-1.92-2.15-1.95-6.33v-15h3.94v14.87q0,5.24,4.25,5.23,4.51,0,6-3.36V391.74h3.94v23h-3.74Z" transform="translate(-80 -277)"/><path class="cls-5" d="M418.56,385.65a2.36,2.36,0,0,1,.59-1.62,2.61,2.61,0,0,1,3.47,0,2.32,2.32,0,0,1,.6,1.62,2.14,2.14,0,0,1-2.34,2.24,2.21,2.21,0,0,1-1.73-.64A2.25,2.25,0,0,1,418.56,385.65Zm4.25,29.13h-3.94v-23h3.94Z" transform="translate(-80 -277)"/><path class="cls-5" d="M432.84,391.76l.13,2.89a8.4,8.4,0,0,1,6.89-3.32q7.31,0,7.36,8.23v15.21h-3.94V399.54a5.24,5.24,0,0,0-1.14-3.68,4.58,4.58,0,0,0-3.48-1.19,5.66,5.66,0,0,0-3.36,1,7,7,0,0,0-2.26,2.68v16.4H429.1v-23h3.74Z" transform="translate(-80 -277)"/><path class="cls-6" d="M300.15,471.75v12.13h-4.09v-31h11.43q5.08,0,8,2.6a8.8,8.8,0,0,1,2.88,6.87,8.69,8.69,0,0,1-2.82,6.95c-1.88,1.62-4.57,2.44-8.08,2.44h-7.29Zm0-3.35h7.34a7.34,7.34,0,0,0,5-1.54,5.66,5.66,0,0,0,1.74-4.46,5.82,5.82,0,0,0-1.74-4.43,6.9,6.9,0,0,0-4.79-1.73h-7.58V468.4Z" transform="translate(-80 -277)"/><path class="cls-6" d="M334.07,464.38a11.75,11.75,0,0,0-1.94-.15,5.2,5.2,0,0,0-5.26,3.3v16.34h-3.94v-23h3.83l.06,2.66a6.12,6.12,0,0,1,5.49-3.08,4,4,0,0,1,1.75.3v3.65Z" transform="translate(-80 -277)"/><path class="cls-6" d="M336.21,472.15a13.54,13.54,0,0,1,1.33-6.08,10,10,0,0,1,3.7-4.17,10.08,10.08,0,0,1,5.42-1.47,9.7,9.7,0,0,1,7.61,3.26,12.51,12.51,0,0,1,2.9,8.66v.28a13.69,13.69,0,0,1-1.29,6,9.81,9.81,0,0,1-3.68,4.16,10.21,10.21,0,0,1-5.5,1.49,9.67,9.67,0,0,1-7.59-3.26,12.44,12.44,0,0,1-2.9-8.62Zm4,.47a9.83,9.83,0,0,0,1.78,6.15,6,6,0,0,0,9.53,0,10.75,10.75,0,0,0,1.77-6.58,9.84,9.84,0,0,0-1.8-6.14,5.71,5.71,0,0,0-4.78-2.35A5.64,5.64,0,0,0,342,466Q340.17,468.3,340.17,472.62Z" transform="translate(-80 -277)"/><path class="cls-6" d="M366.17,460.85v25.68q0,6.64-6,6.64a7.37,7.37,0,0,1-2.4-.38v-3.13a7.79,7.79,0,0,0,1.79.17,2.69,2.69,0,0,0,2-.71,3.52,3.52,0,0,0,.69-2.48V460.85Zm-4.34-6.11a2.38,2.38,0,0,1,.58-1.61,2.14,2.14,0,0,1,1.71-.67,2.24,2.24,0,0,1,1.75.66,2.32,2.32,0,0,1,.6,1.62,2.14,2.14,0,0,1-2.35,2.24,2.17,2.17,0,0,1-1.72-.64A2.32,2.32,0,0,1,361.83,454.74Z" transform="translate(-80 -277)"/><path class="cls-6" d="M382.07,484.3a10.07,10.07,0,0,1-7.62-3.07,11.4,11.4,0,0,1-2.94-8.22v-.72a13.89,13.89,0,0,1,1.31-6.12,10.1,10.1,0,0,1,3.66-4.21,9.25,9.25,0,0,1,5.1-1.52,8.64,8.64,0,0,1,7,3q2.49,3,2.49,8.47v1.64h-15.6a8.2,8.2,0,0,0,2,5.5,6.24,6.24,0,0,0,4.84,2.1,6.81,6.81,0,0,0,3.53-.85,9,9,0,0,0,2.53-2.25l2.4,1.87A9.67,9.67,0,0,1,382.07,484.3Zm-.49-20.64a5.27,5.27,0,0,0-4,1.73,8.44,8.44,0,0,0-2,4.86h11.53V470a7.45,7.45,0,0,0-1.62-4.65A5,5,0,0,0,381.58,463.66Z" transform="translate(-80 -277)"/><path class="cls-6" d="M404.84,481.09a5.69,5.69,0,0,0,3.68-1.28,4.53,4.53,0,0,0,1.75-3.19H414a7.11,7.11,0,0,1-1.36,3.77,9,9,0,0,1-3.35,2.85,9.68,9.68,0,0,1-4.44,1.06,9.49,9.49,0,0,1-7.48-3.14q-2.78-3.14-2.78-8.58v-.66a13.92,13.92,0,0,1,1.23-6,9.3,9.3,0,0,1,3.54-4.06,10.11,10.11,0,0,1,5.46-1.45,9.23,9.23,0,0,1,6.44,2.32,8.27,8.27,0,0,1,2.73,6h-3.72a5.43,5.43,0,0,0-1.69-3.67,5.27,5.27,0,0,0-3.76-1.44,5.51,5.51,0,0,0-4.65,2.16,10.14,10.14,0,0,0-1.65,6.25v.74a10,10,0,0,0,1.64,6.13A5.57,5.57,0,0,0,404.84,481.09Z" transform="translate(-80 -277)"/><path class="cls-6" d="M423.75,455.28v5.58h4.3v3h-4.3v14.29a3.17,3.17,0,0,0,.58,2.08,2.43,2.43,0,0,0,2,.69,9.6,9.6,0,0,0,1.87-.26v3.17a11.56,11.56,0,0,1-3,.42,4.88,4.88,0,0,1-4-1.6,6.88,6.88,0,0,1-1.34-4.53V463.88h-4.19v-3h4.19v-5.58h3.93Z" transform="translate(-80 -277)"/></svg>